<svg width="586" height="223" viewBox="0 0 586 223" fill="none" xmlns="http://www.w3.org/2000/svg">
<g clip-path="url(#clip0_469_78)">
<rect x="6" y="6.39923" width="573.266" height="210.581" rx="3" fill="white"/>
<rect x="6.60436" y="7.67742" width="572.057" height="31.6051" fill="white" stroke="white" stroke-width="2.55637"/>
<rect x="4.72182" y="39.9211" width="575.822" height="178.337" fill="black" stroke="#3C1F24" stroke-width="2.55637"/>
<path d="M567.701 18.4799L557.701 28.4799M557.701 18.4799L567.701 28.4799" stroke="black" stroke-width="3" stroke-linecap="round" stroke-linejoin="round"/>
<path d="M66.6848 82.0475L64.8848 82.0235C64.6288 81.2555 64.1088 80.4715 63.3248 79.6715C62.5408 78.8715 61.3888 78.4715 59.8688 78.4715C58.2048 78.4715 56.8768 79.1115 55.8848 80.3915C54.9088 81.6715 54.4208 83.3195 54.4208 85.3355C54.4208 87.3675 54.9088 89.0315 55.8848 90.3275C56.8768 91.6235 58.2128 92.2715 59.8928 92.2715C61.3968 92.2715 62.5408 91.8475 63.3248 90.9995C64.1248 90.1515 64.6368 89.3035 64.8608 88.4555L66.6368 88.4795C66.3808 89.5515 65.7248 90.7035 64.6688 91.9355C63.6128 93.1675 62.0208 93.7835 59.8928 93.7835C57.6528 93.7835 55.8768 93.0075 54.5648 91.4555C53.2688 89.8875 52.6208 87.8475 52.6208 85.3355C52.6208 82.8555 53.2688 80.8395 54.5648 79.2875C55.8768 77.7195 57.6528 76.9355 59.8928 76.9355C61.9888 76.9355 63.5888 77.5435 64.6928 78.7595C65.7968 79.9595 66.4608 81.0555 66.6848 82.0475ZM78.3903 81.2795C80.1663 81.2795 81.5663 81.8715 82.5903 83.0555C83.6143 84.2395 84.1263 85.7275 84.1263 87.5195C84.1263 89.2955 83.6143 90.7915 82.5903 92.0075C81.5663 93.2075 80.1663 93.8075 78.3903 93.8075C76.6143 93.8075 75.2143 93.2075 74.1903 92.0075C73.1823 90.7915 72.6783 89.2955 72.6783 87.5195C72.6783 85.7275 73.1823 84.2395 74.1903 83.0555C75.2143 81.8715 76.6143 81.2795 78.3903 81.2795ZM78.3903 92.2955C79.5743 92.2955 80.5263 91.8395 81.2463 90.9275C81.9823 90.0155 82.3503 88.8795 82.3503 87.5195C82.3503 86.1435 81.9823 85.0075 81.2463 84.1115C80.5263 83.2155 79.5743 82.7675 78.3903 82.7675C77.2063 82.7675 76.2543 83.2155 75.5343 84.1115C74.8143 85.0075 74.4543 86.1435 74.4543 87.5195C74.4543 88.8795 74.8143 90.0155 75.5343 90.9275C76.2543 91.8395 77.2063 92.2955 78.3903 92.2955ZM100.919 93.3275H99.2152L99.2392 86.0315C99.2392 85.0075 98.9672 84.2315 98.4232 83.7035C97.8952 83.1755 97.1592 82.9115 96.2152 82.9115C95.1592 82.9115 94.2792 83.2635 93.5752 83.9675C92.8712 84.6715 92.5192 85.4315 92.5192 86.2475V93.3275H90.8632V81.7115H92.5192V83.1275C92.9832 82.5995 93.5752 82.1435 94.2952 81.7595C95.0312 81.3595 95.9432 81.1995 97.0312 81.2795C98.2632 81.3435 99.2152 81.8075 99.8872 82.6715C100.575 83.5195 100.919 84.4555 100.919 85.4795V93.3275ZM111.759 83.0315H110.079V90.4235C110.079 90.7275 110.087 90.9755 110.103 91.1675C110.119 91.3595 110.207 91.5355 110.367 91.6955C110.527 91.8395 110.743 91.9275 111.015 91.9595C111.287 91.9755 111.503 91.9835 111.663 91.9835V93.3755H110.367C110.015 93.3755 109.711 93.2875 109.455 93.1115C109.199 92.9355 108.983 92.7275 108.807 92.4875C108.631 92.2475 108.519 91.9915 108.471 91.7195C108.423 91.4315 108.399 91.0635 108.399 90.6155V83.0315H106.959V81.6635L108.399 81.6395L108.423 78.0635H110.079V81.6395L111.759 81.6635V83.0315ZM128.766 93.3995H127.038C126.942 93.2235 126.854 92.9755 126.774 92.6555C126.71 92.3195 126.67 91.9915 126.654 91.6715C126.238 92.1355 125.622 92.5835 124.806 93.0155C124.006 93.4635 123.118 93.7115 122.142 93.7595C120.926 93.8235 119.886 93.6075 119.022 93.1115C118.158 92.6155 117.67 91.8555 117.558 90.8315C117.446 89.7915 117.67 88.9755 118.23 88.3835C118.79 87.7915 119.486 87.3675 120.318 87.1115C121.022 86.9035 121.774 86.7755 122.574 86.7275C123.39 86.6635 124.142 86.5755 124.83 86.4635C125.198 86.3835 125.59 86.2635 126.006 86.1035C126.438 85.9275 126.654 85.5915 126.654 85.0955C126.654 84.5035 126.382 83.9595 125.838 83.4635C125.294 82.9515 124.454 82.6955 123.318 82.6955C122.246 82.6955 121.398 82.9275 120.774 83.3915C120.15 83.8395 119.854 84.4395 119.886 85.1915H118.254C118.142 83.9915 118.598 83.0315 119.622 82.3115C120.646 81.5915 121.878 81.2315 123.318 81.2315C124.694 81.2315 125.886 81.5755 126.894 82.2635C127.902 82.9515 128.406 83.9115 128.406 85.1435V91.4555C128.406 91.9355 128.462 92.3755 128.574 92.7755C128.686 93.1595 128.75 93.3675 128.766 93.3995ZM126.654 89.1995V87.1115C126.51 87.2235 126.318 87.3275 126.078 87.4235C125.838 87.5195 125.606 87.5915 125.382 87.6395C124.886 87.7515 124.198 87.8555 123.318 87.9515C122.454 88.0475 121.854 88.1355 121.518 88.2155C120.734 88.4235 120.15 88.7275 119.766 89.1275C119.398 89.5275 119.23 90.0075 119.262 90.5675C119.31 91.2235 119.63 91.7035 120.222 92.0075C120.814 92.2955 121.518 92.4075 122.334 92.3435C123.422 92.2635 124.414 91.8955 125.31 91.2395C126.206 90.5675 126.654 89.8875 126.654 89.1995ZM143.98 89.7995L145.78 89.8235C145.524 90.8155 144.956 91.7275 144.076 92.5595C143.212 93.3915 142.012 93.8075 140.476 93.8075C138.7 93.8075 137.3 93.2075 136.276 92.0075C135.268 90.7915 134.764 89.2955 134.764 87.5195C134.764 85.7435 135.268 84.2635 136.276 83.0795C137.3 81.8795 138.7 81.2795 140.476 81.2795C142.028 81.2795 143.26 81.7275 144.172 82.6235C145.084 83.5035 145.62 84.4075 145.78 85.3355L144.004 85.3595C143.876 84.8155 143.532 84.2475 142.972 83.6555C142.428 83.0635 141.596 82.7675 140.476 82.7675C139.308 82.7675 138.356 83.2155 137.62 84.1115C136.9 85.0075 136.54 86.1435 136.54 87.5195C136.54 88.9115 136.9 90.0555 137.62 90.9515C138.356 91.8475 139.308 92.2955 140.476 92.2955C141.388 92.2955 142.148 92.0555 142.756 91.5755C143.364 91.0795 143.772 90.4875 143.98 89.7995ZM156.032 83.0315H154.352V90.4235C154.352 90.7275 154.36 90.9755 154.376 91.1675C154.392 91.3595 154.48 91.5355 154.64 91.6955C154.8 91.8395 155.016 91.9275 155.288 91.9595C155.56 91.9755 155.776 91.9835 155.936 91.9835V93.3755H154.64C154.288 93.3755 153.984 93.2875 153.728 93.1115C153.472 92.9355 153.256 92.7275 153.08 92.4875C152.904 92.2475 152.792 91.9915 152.744 91.7195C152.696 91.4315 152.672 91.0635 152.672 90.6155V83.0315H151.232V81.6635L152.672 81.6395L152.696 78.0635H154.352V81.6395L156.032 81.6635V83.0315ZM189.312 93.3515L177.84 93.3275V77.3435H189.048V78.8075H179.496V84.3035H188.712V85.7915H179.496V91.8875L189.312 91.8635V93.3515ZM201.909 81.3035L201.933 82.9835C201.581 82.9835 201.189 83.0155 200.757 83.0795C200.325 83.1275 199.949 83.2475 199.629 83.4395C198.973 83.8075 198.469 84.2875 198.117 84.8795C197.781 85.4715 197.613 86.2555 197.613 87.2315V93.3275H195.957V81.7115H197.565L197.613 83.5595C197.853 83.1595 198.133 82.8155 198.453 82.5275C198.789 82.2395 199.181 81.9915 199.629 81.7835C200.013 81.6075 200.421 81.4875 200.853 81.4235C201.301 81.3435 201.653 81.3035 201.909 81.3035ZM214.284 81.3035L214.308 82.9835C213.956 82.9835 213.564 83.0155 213.132 83.0795C212.7 83.1275 212.324 83.2475 212.004 83.4395C211.348 83.8075 210.844 84.2875 210.492 84.8795C210.156 85.4715 209.988 86.2555 209.988 87.2315V93.3275H208.332V81.7115H209.94L209.988 83.5595C210.228 83.1595 210.508 82.8155 210.828 82.5275C211.164 82.2395 211.556 81.9915 212.004 81.7835C212.388 81.6075 212.796 81.4875 213.228 81.4235C213.676 81.3435 214.028 81.3035 214.284 81.3035ZM224.687 81.2795C226.463 81.2795 227.863 81.8715 228.887 83.0555C229.911 84.2395 230.423 85.7275 230.423 87.5195C230.423 89.2955 229.911 90.7915 228.887 92.0075C227.863 93.2075 226.463 93.8075 224.687 93.8075C222.911 93.8075 221.511 93.2075 220.487 92.0075C219.479 90.7915 218.975 89.2955 218.975 87.5195C218.975 85.7275 219.479 84.2395 220.487 83.0555C221.511 81.8715 222.911 81.2795 224.687 81.2795ZM224.687 92.2955C225.871 92.2955 226.823 91.8395 227.543 90.9275C228.279 90.0155 228.647 88.8795 228.647 87.5195C228.647 86.1435 228.279 85.0075 227.543 84.1115C226.823 83.2155 225.871 82.7675 224.687 82.7675C223.503 82.7675 222.551 83.2155 221.831 84.1115C221.111 85.0075 220.751 86.1435 220.751 87.5195C220.751 88.8795 221.111 90.0155 221.831 90.9275C222.551 91.8395 223.503 92.2955 224.687 92.2955ZM243.112 81.3035L243.136 82.9835C242.784 82.9835 242.392 83.0155 241.96 83.0795C241.528 83.1275 241.152 83.2475 240.832 83.4395C240.176 83.8075 239.672 84.2875 239.32 84.8795C238.984 85.4715 238.816 86.2555 238.816 87.2315V93.3275H237.16V81.7115H238.768L238.816 83.5595C239.056 83.1595 239.336 82.8155 239.656 82.5275C239.992 82.2395 240.384 81.9915 240.832 81.7835C241.216 81.6075 241.624 81.4875 242.056 81.4235C242.504 81.3435 242.856 81.3035 243.112 81.3035Z" fill="white"/>
<mask id="path-7-inside-1_469_78" fill="white">
<path d="M397.061 152.924H562.701V196.285H397.061V152.924Z"/>
</mask>
<path d="M397.061 152.924H562.701V196.285H397.061V152.924Z" fill="white"/>
<path d="M397.061 152.924V151.924H396.061V152.924H397.061ZM397.061 153.924H562.701V151.924H397.061V153.924ZM398.061 196.285V152.924H396.061V196.285H398.061Z" fill="#FF9595" mask="url(#path-7-inside-1_469_78)"/>
<path d="M459.039 182.084H456.999L452.415 175.388H447.591V182.06H445.935V166.076L452.751 166.052C454.335 166.052 455.623 166.484 456.615 167.348C457.623 168.212 458.127 169.324 458.127 170.684C458.127 171.836 457.743 172.812 456.975 173.612C456.207 174.412 455.327 174.94 454.335 175.196L459.039 182.084ZM452.655 173.9C453.551 173.9 454.383 173.636 455.151 173.108C455.935 172.58 456.327 171.772 456.327 170.684C456.327 169.548 455.951 168.74 455.199 168.26C454.463 167.78 453.647 167.54 452.751 167.54H447.591V173.9H452.655ZM475.502 176.66L465.854 176.708C465.886 177.988 466.31 179.028 467.126 179.828C467.942 180.628 468.83 181.028 469.79 181.028C470.798 181.028 471.574 180.804 472.118 180.356C472.678 179.908 473.046 179.412 473.222 178.868L475.07 178.892C474.766 179.74 474.206 180.556 473.39 181.34C472.59 182.124 471.398 182.516 469.814 182.516C468.118 182.516 466.742 181.916 465.686 180.716C464.63 179.516 464.102 178.028 464.102 176.252C464.102 174.476 464.614 172.996 465.638 171.812C466.678 170.612 468.062 170.012 469.79 170.012C471.358 170.012 472.71 170.564 473.846 171.668C474.998 172.772 475.55 174.436 475.502 176.66ZM465.902 175.316H473.702C473.654 174.18 473.254 173.26 472.502 172.556C471.75 171.836 470.846 171.476 469.79 171.476C468.75 171.476 467.862 171.828 467.126 172.532C466.39 173.236 465.982 174.164 465.902 175.316ZM485.839 171.764H484.159V179.156C484.159 179.46 484.167 179.708 484.183 179.9C484.199 180.092 484.287 180.268 484.447 180.428C484.607 180.572 484.823 180.66 485.095 180.692C485.367 180.708 485.583 180.716 485.743 180.716V182.108H484.447C484.095 182.108 483.791 182.02 483.535 181.844C483.279 181.668 483.063 181.46 482.887 181.22C482.711 180.98 482.599 180.724 482.551 180.452C482.503 180.164 482.479 179.796 482.479 179.348V171.764H481.039V170.396L482.479 170.372L482.503 166.796H484.159V170.372L485.839 170.396V171.764ZM498.598 170.036L498.622 171.716C498.27 171.716 497.878 171.748 497.446 171.812C497.014 171.86 496.638 171.98 496.318 172.172C495.662 172.54 495.158 173.02 494.806 173.612C494.47 174.204 494.302 174.988 494.302 175.964V182.06H492.646V170.444H494.254L494.302 172.292C494.542 171.892 494.822 171.548 495.142 171.26C495.478 170.972 495.87 170.724 496.318 170.516C496.702 170.34 497.11 170.22 497.542 170.156C497.99 170.076 498.342 170.036 498.598 170.036ZM515.357 170.444L509.717 184.148C509.557 184.532 509.373 184.868 509.165 185.156C508.973 185.444 508.725 185.676 508.421 185.852C508.133 186.012 507.861 186.108 507.605 186.14C507.349 186.188 507.045 186.212 506.693 186.212H506.021V184.796L506.933 184.82C507.253 184.836 507.501 184.732 507.677 184.508C507.869 184.3 508.021 184.068 508.133 183.812L508.901 181.964L504.149 170.444L505.853 170.42L509.741 179.852L513.653 170.42L515.357 170.444Z" fill="black"/>
</g>
<rect x="3" y="3.39923" width="579.266" height="216.581" rx="6" stroke="white" stroke-width="6"/>
<defs>
<clipPath id="clip0_469_78">
<rect x="6" y="6.39923" width="573.266" height="210.581" rx="3" fill="white"/>
</clipPath>
</defs>
</svg>
