<?xml version="1.0" encoding="UTF-8"?>
<svg id="Layer_4" data-name="Layer 4" xmlns="http://www.w3.org/2000/svg" viewBox="0 0 1000 1000">
  <defs>
    <style>
      .cls-1 {
        fill: #fff;
        stroke: #231f20;
        stroke-miterlimit: 10;
      }
    </style>
  </defs>
  <path class="cls-1" d="M176.06,540.99s-167.17-160.26-6.95-288.51,404.92,10.23,404.92,10.23c0,0,214.1-66.37,251.89,14.55s-110.91,143.7-110.91,143.7l-.57,7.5s125.76,17.3,167.86,140.39-97.63,223.24-246.29,187.54c0,0-92.33-24.48-117.48-34.28,0,0-35.35,107.28-135.06,63.66,0,0-60.84-36.87,13.84-103.01l15.87-14.76.75-13.14s-16.62,27.9-53.06-22.64c0,0-102.11,177.57-193.95,106.8-78.64-60.6,9.15-198.05,9.15-198.05ZM327.91,562.29l115.3-82.61c-11.25-66.24,6.06-90.13,6.06-90.13,1.23,25.09,23.07,69.02,23.07,69.02,0,0,38.33-45.36,54.4-49.86s47.07,51.69,47.07,51.69l80.45-44.49c-45.39-75.48-138.81-103-138.81-103-156.73,58.96-246.43,187.47-246.43,187.47-12.29,15.95,58.9,61.91,58.9,61.91ZM606.94,282.7s56.29,30.17,85.84,102.28c0,0,68.01-58.5,33.73-93.31s-119.58-8.97-119.58-8.97ZM236.28,461.96s99.1-91.13,226.03-163.32c0,0-145.52-39.93-217.84,30.55s-8.19,132.77-8.19,132.77ZM658.88,587.88s95.18-16.57,65.24-65.02-75.03-2.36-75.03-2.36c0,0-55.89,48.46-58.81,70.43,0,0,23.43-.28,68.6-3.05ZM550.61,643l-10.48,24.32s119.07,59.3,183.26,30.96,68.65-64.68,67.33-97.02c0,0-56.3,79.41-240.11,41.74ZM431.09,668.07s-40.22,37.15-32.65,73.87,63.77-30.24,70.84-47.06c0,0-15.5-1.19-38.19-26.81Z"/>
</svg>